<svg xmlns="http://www.w3.org/2000/svg" width="174" height="41" fill="none">
  <path fill="#fff" d="M62.813 32.469c-1.782 0-3.428-.302-4.938-.907A12.068 12.068 0 0 1 53.953 29a11.85 11.85 0 0 1-2.578-3.875c-.604-1.48-.906-3.094-.906-4.844 0-1.75.302-3.364.906-4.843a11.636 11.636 0 0 1 2.578-3.876 11.864 11.864 0 0 1 3.922-2.546c1.51-.615 3.156-.922 4.938-.922 1.78 0 3.421.307 4.921.922a11.52 11.52 0 0 1 3.891 2.546 11.634 11.634 0 0 1 2.578 3.876c.615 1.479.922 3.093.922 4.843s-.307 3.365-.922 4.844A11.85 11.85 0 0 1 71.625 29c-1.094 1.094-2.39 1.948-3.89 2.563-1.5.604-3.141.906-4.922.906Zm0-4.203a6.99 6.99 0 0 0 2.921-.61 7.201 7.201 0 0 0 2.36-1.687 7.848 7.848 0 0 0 1.547-2.532c.375-.968.562-2.02.562-3.156 0-1.135-.187-2.187-.562-3.156a7.629 7.629 0 0 0-1.547-2.531 6.911 6.911 0 0 0-2.36-1.688 6.992 6.992 0 0 0-2.921-.61 7.136 7.136 0 0 0-5.313 2.298 7.84 7.84 0 0 0-1.563 2.531c-.364.969-.546 2.02-.546 3.156 0 1.136.182 2.188.547 3.157a8.029 8.029 0 0 0 1.562 2.546 7.426 7.426 0 0 0 2.36 1.688c.906.396 1.89.594 2.953.594Zm26.234 3.328c-1.198.479-2.36.718-3.484.718-1.167 0-2.198-.244-3.094-.734A5.384 5.384 0 0 1 80.39 29.5c-.5-.896-.75-1.927-.75-3.094v-6.031h-2.735v-4h2.969v-3.906h4.25v3.906h4.328v4h-4.328v5.219c0 .854.234 1.52.703 2 .469.468 1.052.703 1.75.703.635 0 1.255-.198 1.86-.594l.609 3.89ZM105.28 32h-3.906l-.234-1.86a5.935 5.935 0 0 1-2.125 1.61c-.844.375-1.771.563-2.782.563-1.093 0-2.067-.209-2.921-.626-.855-.427-1.526-1.01-2.016-1.75-.49-.75-.734-1.599-.734-2.546 0-1 .265-1.88.796-2.641.532-.76 1.26-1.354 2.188-1.781.937-.438 2-.657 3.187-.657.698 0 1.396.079 2.094.235a9.495 9.495 0 0 1 1.969.656v-.406c0-.625-.177-1.162-.531-1.61-.344-.458-.823-.812-1.438-1.062-.604-.25-1.281-.375-2.031-.375-.719 0-1.432.115-2.14.344a6.437 6.437 0 0 0-1.938 1.031L91.5 17.703a14.953 14.953 0 0 1 3.188-1.219 12.48 12.48 0 0 1 3.14-.422c1.521 0 2.839.303 3.953.907a6.22 6.22 0 0 1 2.578 2.531c.615 1.083.922 2.37.922 3.86V32Zm-8.062-3.14c.594 0 1.161-.13 1.703-.391.541-.26.979-.615 1.312-1.063.344-.448.526-.942.547-1.484v-.11a5.435 5.435 0 0 0-1.531-.718 5.493 5.493 0 0 0-1.688-.266c-.854 0-1.552.188-2.093.563-.542.375-.813.859-.813 1.453 0 .385.11.734.328 1.047.23.302.537.541.922.718.386.167.823.25 1.313.25ZM113.266 32h-4.485V8.562h4.485V22.97l1.531-1.844 4.5-4.75h5.609l-6.609 6.953L125.688 32h-5.797l-4.672-5.86-1.953 1.782V32Zm16.968-19.36a2.015 2.015 0 0 1-1.5-.624 2.091 2.091 0 0 1-.609-1.516c0-.594.203-1.094.609-1.5a2.015 2.015 0 0 1 1.5-.625c.605 0 1.11.208 1.516.625.417.406.625.906.625 1.5s-.208 1.099-.625 1.516c-.406.416-.911.625-1.516.625Zm2.25 19.36H128V16.375h4.484V32Zm19.454 0h-4.485v-8c0-1.219-.292-2.172-.875-2.86-.573-.697-1.359-1.046-2.359-1.046-1.042 0-1.87.364-2.485 1.093-.604.72-.906 1.698-.906 2.938V32h-4.484V16.375h3.625l.156 2.5c.563-.917 1.297-1.615 2.203-2.094.906-.479 1.974-.718 3.203-.718 1.99 0 3.552.614 4.688 1.843 1.146 1.219 1.719 2.907 1.719 5.063V32Zm9.89.188c-1.406 0-2.667-.35-3.781-1.047-1.115-.709-1.99-1.667-2.625-2.875-.636-1.22-.953-2.6-.953-4.141 0-1.552.317-2.932.953-4.14.635-1.209 1.51-2.162 2.625-2.86 1.114-.708 2.38-1.063 3.797-1.063 1.104 0 2.114.22 3.031.657a7.09 7.09 0 0 1 2.391 1.781l.203-2.125h3.937v15.188c0 1.729-.38 3.234-1.14 4.515-.75 1.292-1.813 2.287-3.188 2.984-1.375.709-2.984 1.063-4.828 1.063-2.562 0-4.885-.802-6.969-2.406l1.813-3.657c1.385 1.365 3 2.047 4.844 2.047.989 0 1.854-.198 2.593-.593a4.324 4.324 0 0 0 1.75-1.657c.427-.708.641-1.53.641-2.468v-1.282a7.25 7.25 0 0 1-2.266 1.532c-.864.364-1.807.547-2.828.547Zm1.156-4c.73 0 1.391-.157 1.985-.47a3.803 3.803 0 0 0 1.422-1.327 3.61 3.61 0 0 0 .531-1.938v-.672c0-.718-.182-1.36-.547-1.922-.354-.562-.828-1-1.422-1.312-.583-.323-1.239-.485-1.969-.485-.75 0-1.422.178-2.015.532a3.847 3.847 0 0 0-1.407 1.453c-.343.604-.515 1.297-.515 2.078 0 .781.172 1.48.515 2.094a3.849 3.849 0 0 0 1.407 1.453c.593.344 1.265.515 2.015.515Z"/>
  <path fill="#00A6ED" fill-rule="evenodd" d="M6.484 25.844a2.074 2.074 0 1 1-4.147 0 2.074 2.074 0 0 1 4.147 0Zm27.904 0a2.074 2.074 0 1 1-4.148 0 2.074 2.074 0 0 1 4.148 0Z" clip-rule="evenodd"/>
  <path fill="#E19747" fill-rule="evenodd" d="m10.828 12.417 4.174 5.604-8.65.998L9.135 12.6a1.805 1.805 0 0 1-1.142-1.68c0-.998.814-1.812 1.811-1.812a1.815 1.815 0 0 1 1.024 3.308Zm16.748.184 2.782 6.418-8.65-.998 4.175-5.604a1.828 1.828 0 0 1-.788-1.496c0-.998.814-1.812 1.811-1.812.998 0 1.812.814 1.812 1.812 0 .76-.473 1.417-1.142 1.68Z" clip-rule="evenodd"/>
  <path fill="#FFB02E" d="M36.724 12.18c0-.997-.814-1.81-1.811-1.81-.998 0-1.812.813-1.812 1.81 0 .368.118.722.302.998-.289 0-.577.066-.853.25l-5.158 3.333a1.53 1.53 0 0 1-2.06-.38l-5.736-7.784a.908.908 0 0 0-.145-.17 2.259 2.259 0 1 0-2.178 0 .905.905 0 0 0-.145.17l-5.736 7.784a1.527 1.527 0 0 1-2.06.38l-5.158-3.334a1.495 1.495 0 0 0-.853-.249c.196-.289.301-.63.301-.998 0-.997-.813-1.81-1.81-1.81-.998 0-1.812.813-1.812 1.81 0 .998.814 1.812 1.811 1.812.066 0 .131 0 .184-.013-.17.302-.236.656-.158 1.037L5.25 32.038a2.627 2.627 0 0 0 2.572 2.1h21.08c1.246 0 2.322-.88 2.572-2.1l3.412-17.024c.079-.38 0-.748-.157-1.036.065 0 .131.013.184.013.997 0 1.81-.814 1.81-1.812Z"/>
  <path fill="#00A6ED" d="M18.362 29.125a3.282 3.282 0 1 0 0-6.563 3.282 3.282 0 0 0 0 6.563Z"/>
  <path fill="#F8312F" fill-rule="evenodd" d="M11.813 25.844a1.969 1.969 0 1 1-3.938 0 1.969 1.969 0 0 1 3.938 0Zm17.062 0a1.969 1.969 0 1 1-3.938 0 1.969 1.969 0 0 1 3.938 0Z" clip-rule="evenodd"/>
</svg>
